<?xml version="1.0" standalone="no"?>
<!DOCTYPE svg PUBLIC "-//W3C//DTD SVG 20010904//EN"
 "http://www.w3.org/TR/2001/REC-SVG-20010904/DTD/svg10.dtd">
<svg version="1.0" xmlns="http://www.w3.org/2000/svg"
 width="1024.000000pt" height="1024.000000pt" viewBox="0 0 1024.000000 1024.000000"
 preserveAspectRatio="xMidYMid meet">
<metadata>
Created by potrace 1.11, written by Peter Selinger 2001-2013
</metadata>
<g transform="translate(0.000000,1024.000000) scale(0.100000,-0.100000)"
fill="#000000" stroke="none">
<path d="M1836 10121 c-3 -5 1 -11 9 -14 9 -4 12 -1 8 9 -6 16 -10 17 -17 5z"/>
<path d="M7153 10092 c-21 -2 -33 -9 -33 -18 0 -12 -7 -14 -31 -9 -19 4 -29 3
-26 -2 3 -5 -3 -16 -14 -23 -10 -8 -19 -20 -19 -26 0 -7 -5 -14 -10 -16 -6 -2
-12 -14 -15 -27 -2 -14 -17 -37 -32 -53 -14 -15 -24 -30 -21 -33 3 -3 -4 -17
-16 -30 -15 -17 -24 -21 -33 -13 -13 11 -15 8 -17 -27 -1 -25 -72 -131 -92
-139 -9 -3 -12 -11 -8 -18 5 -8 2 -9 -10 -5 -10 4 -16 2 -15 -6 4 -30 -2 -47
-16 -47 -9 0 -15 -9 -15 -25 0 -14 -8 -29 -21 -35 -11 -6 -29 -26 -39 -43 -11
-18 -20 -28 -20 -24 0 5 -19 -11 -42 -35 -23 -24 -46 -43 -52 -43 -6 0 -12
-10 -14 -22 -2 -12 -12 -25 -23 -28 -11 -4 -17 -10 -14 -15 3 -4 -2 -10 -10
-14 -8 -3 -15 -12 -15 -21 0 -8 -7 -15 -15 -15 -8 0 -15 -7 -15 -15 0 -8 -5
-15 -11 -15 -17 0 -49 -40 -49 -62 0 -10 -7 -18 -15 -18 -8 0 -15 -7 -15 -15
0 -8 -9 -15 -19 -15 -12 0 -21 -8 -23 -20 -2 -12 -6 -19 -9 -18 -8 4 -39 -29
-39 -42 0 -6 -12 -23 -26 -38 -14 -15 -32 -39 -40 -54 -7 -15 -23 -29 -33 -33
-11 -3 -18 -12 -15 -19 2 -6 -9 -24 -26 -39 -17 -15 -33 -41 -37 -58 -3 -17
-9 -26 -12 -20 -4 6 -12 7 -21 1 -10 -7 -11 -10 -2 -10 6 0 12 -7 12 -15 0 -8
-7 -15 -16 -15 -8 0 -13 -4 -9 -9 3 -5 -8 -18 -25 -28 -18 -10 -28 -23 -25
-31 3 -8 -3 -16 -15 -19 -11 -3 -18 -9 -15 -13 3 -4 -2 -13 -10 -20 -8 -7 -15
-18 -15 -26 0 -7 -8 -19 -19 -26 -10 -7 -22 -28 -25 -46 -4 -17 -12 -32 -17
-32 -6 0 -8 -4 -5 -9 3 -5 -3 -11 -14 -14 -11 -3 -24 -15 -28 -27 -4 -12 -11
-21 -15 -21 -24 3 -26 -1 -15 -19 11 -16 9 -23 -11 -41 -16 -15 -19 -24 -11
-29 8 -5 7 -12 -5 -23 -9 -9 -13 -21 -10 -27 3 -5 1 -10 -4 -10 -6 0 -11 -9
-11 -19 0 -11 -4 -23 -10 -26 -5 -3 -10 -13 -10 -21 0 -8 -14 -33 -31 -54 -17
-21 -28 -43 -24 -49 3 -7 -2 -11 -14 -11 -17 0 -20 -5 -14 -30 3 -19 1 -30 -6
-30 -6 0 -11 -10 -11 -22 0 -11 -11 -36 -25 -53 -13 -18 -21 -35 -18 -39 4 -3
1 -6 -6 -6 -8 0 -11 -8 -8 -20 3 -10 -1 -24 -9 -31 -8 -6 -14 -20 -14 -30 0
-11 -4 -19 -10 -19 -5 0 -10 -11 -10 -25 0 -14 -5 -25 -11 -25 -5 0 -7 -4 -4
-10 3 -5 1 -10 -5 -10 -6 0 -9 -4 -6 -9 3 -5 -1 -14 -9 -21 -8 -7 -15 -19 -15
-26 0 -8 -5 -14 -11 -14 -5 0 -7 -4 -4 -10 3 -5 -8 -28 -26 -49 -18 -23 -29
-46 -26 -55 3 -8 -3 -26 -14 -39 -10 -14 -19 -31 -19 -38 0 -14 -17 -72 -33
-109 -6 -14 -11 -28 -11 -32 -1 -3 -4 -9 -7 -12 -4 -4 -5 -20 -3 -35 2 -17 -3
-34 -11 -41 -8 -7 -15 -21 -15 -31 0 -35 -24 -109 -36 -109 -6 0 -10 -12 -8
-27 3 -31 -15 -93 -28 -93 -4 0 -7 -3 -6 -7 1 -5 -6 -22 -15 -40 -9 -18 -17
-43 -17 -56 0 -13 -8 -48 -18 -78 -10 -30 -17 -64 -16 -77 1 -13 -4 -26 -11
-28 -6 -3 -11 -22 -10 -44 1 -22 -1 -40 -5 -40 -3 0 -7 -12 -8 -27 -2 -45 -24
-137 -35 -144 -5 -4 -9 -47 -9 -95 1 -59 -3 -91 -11 -96 -9 -6 -9 -8 1 -8 8 0
10 -5 6 -12 -4 -7 -7 -29 -5 -49 1 -21 -3 -40 -9 -44 -8 -5 -8 -11 1 -21 9
-11 8 -15 -3 -19 -9 -4 -14 -17 -13 -33 1 -15 -1 -31 -5 -37 -3 -5 -6 -19 -5
-30 0 -11 -3 -32 -7 -47 -3 -16 -3 -28 1 -28 4 0 6 -15 5 -32 -1 -18 2 -39 8
-45 6 -7 6 -13 1 -13 -5 0 -9 -26 -8 -57 0 -32 -4 -64 -9 -71 -5 -7 -11 -23
-12 -35 -2 -12 -5 -33 -7 -47 -3 -14 -5 -34 -6 -46 -1 -26 -66 -92 -84 -86 -5
1 -11 -7 -14 -18 -3 -11 -9 -20 -14 -20 -5 0 -9 -7 -9 -15 0 -10 -10 -15 -26
-15 -21 0 -24 -3 -15 -14 8 -10 6 -19 -9 -39 -17 -22 -26 -25 -53 -20 -18 3
-38 13 -44 21 -7 9 -13 12 -13 8 0 -14 -99 75 -117 104 -9 16 -27 34 -40 41
-14 7 -27 25 -29 39 -3 14 -18 33 -34 42 -16 9 -36 29 -46 45 -10 15 -27 36
-38 46 -10 9 -15 17 -11 17 5 0 -6 14 -23 31 -18 17 -32 35 -32 40 0 5 -7 9
-15 9 -9 0 -12 6 -9 15 4 11 2 13 -9 10 -8 -4 -22 1 -31 10 -15 16 -18 22 -20
53 -1 7 -28 38 -61 68 -33 31 -60 62 -60 68 0 7 -26 38 -58 71 -31 32 -55 60
-53 62 6 7 -148 157 -158 155 -10 -3 -96 88 -96 102 0 5 -8 15 -17 22 -11 8
-13 13 -5 14 6 0 12 5 12 10 0 6 -6 10 -12 10 -20 0 -71 48 -64 59 4 6 14 7
23 4 15 -6 16 -5 3 9 -8 9 -16 12 -18 7 -2 -5 -14 -1 -28 7 -13 9 -22 20 -19
24 3 5 -7 18 -22 29 -53 40 -78 66 -91 95 -7 16 -40 59 -72 96 -33 37 -60 72
-60 78 0 7 -4 12 -10 12 -5 0 -9 3 -9 8 3 20 -2 32 -16 32 -8 0 -21 16 -29 35
-8 19 -20 35 -25 35 -6 0 -11 7 -11 15 0 8 -9 20 -20 27 -11 7 -20 17 -20 22
0 13 -36 42 -70 56 -17 7 -30 17 -30 23 0 16 -80 88 -91 82 -5 -4 -9 -1 -9 4
0 6 -3 10 -7 9 -15 -3 -43 14 -37 23 3 5 -2 9 -10 9 -15 0 -108 93 -137 137
-9 14 -18 23 -21 21 -10 -8 -151 116 -159 140 -2 7 -12 14 -21 16 -9 1 -25 10
-36 19 -10 9 -21 14 -25 11 -3 -3 -10 3 -16 14 -8 15 -8 21 0 24 6 2 -1 16
-16 32 -16 17 -32 26 -41 22 -12 -5 -15 -2 -10 9 4 12 2 14 -11 7 -12 -7 -22
-3 -39 15 -13 14 -28 22 -34 18 -15 -9 -40 13 -40 37 0 15 -6 18 -34 16 -33
-2 -62 13 -79 40 -8 13 -47 32 -75 38 -8 1 -22 10 -33 20 -10 9 -22 14 -25 11
-7 -7 -59 19 -81 40 -7 6 -22 10 -34 8 -11 -2 -22 2 -25 10 -5 11 -11 12 -24
5 -13 -7 -20 -6 -24 6 -4 9 -13 14 -21 10 -8 -3 -15 -2 -15 3 0 9 -66 26 -88
22 -8 -1 -20 5 -26 15 -7 9 -20 15 -28 12 -8 -3 -24 5 -37 18 -13 13 -31 24
-41 24 -20 0 -93 39 -98 52 -2 5 -7 6 -12 3 -5 -3 -21 0 -37 7 -15 6 -30 12
-33 13 -3 1 -25 11 -50 23 -25 12 -63 27 -85 35 -23 8 -39 19 -37 26 2 8 -3
11 -12 8 -8 -3 -20 0 -26 8 -6 7 -26 16 -45 19 -19 4 -35 10 -35 14 0 8 -78
46 -95 47 -5 0 -16 6 -23 13 -7 6 -24 12 -37 12 -15 0 -29 9 -36 21 -6 12 -14
17 -18 12 -3 -6 -20 -8 -38 -6 -24 4 -30 9 -26 21 4 9 2 13 -4 9 -6 -4 -18 -1
-26 7 -8 9 -19 11 -28 6 -7 -5 -18 -5 -24 0 -6 5 -20 8 -31 8 -22 -2 -114 21
-129 32 -8 7 -49 18 -91 26 -36 6 -54 17 -55 32 0 10 -3 12 -6 5 -3 -10 -9 -9
-20 3 -9 8 -24 14 -33 11 -9 -2 -28 2 -41 9 -13 7 -38 13 -54 14 -17 0 -40 6
-51 14 -12 9 -36 13 -58 11 -28 -2 -39 1 -47 16 -5 10 -16 19 -25 19 -11 0
-12 -4 -4 -19 14 -27 13 -30 -11 -26 -15 3 -19 0 -15 -11 3 -8 -1 -17 -8 -20
-14 -5 -29 -39 -27 -59 0 -6 -9 -16 -20 -23 -18 -11 -24 -11 -40 4 -11 9 -22
15 -25 11 -3 -3 4 -10 15 -17 14 -7 21 -21 21 -41 0 -16 6 -32 14 -35 17 -7
12 -55 -8 -69 -12 -9 -12 -13 -1 -21 10 -7 11 -21 5 -54 -5 -32 -8 -37 -9 -17
0 16 -5 26 -11 22 -5 -3 -10 3 -10 14 0 10 -3 27 -6 35 -6 15 -8 15 -19 -1 -9
-12 -10 -23 -4 -35 5 -10 12 -38 14 -63 6 -60 19 -82 58 -100 29 -13 30 -14 5
-9 -34 7 -38 -14 -8 -41 19 -17 24 -14 21 10 -1 6 6 1 14 -9 22 -28 19 -39 -9
-32 -14 3 -28 2 -31 -4 -3 -5 1 -10 10 -10 9 0 14 -4 10 -9 -9 -15 14 -24 30
-11 7 6 15 7 18 3 6 -11 21 -65 22 -80 0 -6 9 -21 19 -32 15 -17 16 -23 6 -36
-10 -12 -10 -15 2 -15 10 0 20 -18 28 -47 7 -27 17 -53 22 -60 6 -7 7 -17 3
-23 -3 -5 0 -17 7 -25 32 -35 40 -47 53 -80 8 -18 23 -40 32 -47 10 -7 19 -19
21 -27 1 -7 10 -20 18 -28 8 -9 13 -20 11 -26 -2 -6 7 -21 20 -33 13 -12 23
-28 23 -37 0 -8 13 -25 30 -38 16 -13 30 -29 30 -35 0 -6 7 -18 17 -25 31 -26
93 -118 93 -139 0 -11 5 -20 11 -20 12 0 44 -30 44 -41 0 -4 11 -20 25 -36 14
-15 31 -40 37 -55 7 -16 17 -28 23 -28 6 0 9 -4 6 -8 -3 -5 6 -19 19 -30 14
-12 25 -28 25 -36 0 -7 7 -19 15 -26 9 -7 13 -20 10 -30 -4 -11 3 -20 19 -28
14 -6 29 -26 35 -45 7 -20 18 -38 26 -41 8 -3 15 -12 15 -21 0 -8 5 -15 11
-15 5 0 8 -4 5 -9 -4 -5 5 -23 19 -39 14 -16 25 -35 25 -41 0 -6 5 -11 10 -11
6 0 10 -7 10 -15 0 -9 7 -18 15 -21 8 -4 12 -10 9 -15 -3 -5 0 -9 5 -9 6 0 11
-5 11 -11 0 -6 -7 -8 -17 -5 -14 6 -14 3 3 -16 12 -13 34 -45 50 -73 15 -27
34 -54 41 -58 8 -5 23 -28 34 -53 12 -24 25 -44 30 -44 5 0 9 -6 9 -14 0 -7 7
-19 15 -26 8 -7 12 -17 8 -24 -3 -6 -3 -8 2 -4 10 9 24 -7 64 -72 18 -30 39
-58 46 -62 6 -4 20 -26 30 -50 11 -24 30 -53 43 -66 13 -13 21 -29 18 -37 -3
-8 -1 -15 4 -15 6 0 10 -9 10 -19 0 -11 11 -32 25 -47 14 -15 25 -33 25 -40 0
-8 5 -14 10 -14 6 0 10 -6 10 -13 0 -6 17 -31 39 -54 21 -23 36 -44 34 -46 -2
-2 25 -34 59 -72 35 -37 69 -81 77 -99 7 -17 16 -33 21 -36 4 -3 19 -25 34
-49 22 -35 25 -45 14 -52 -14 -9 -18 -31 -6 -39 4 -3 9 -16 11 -28 3 -22 82
-103 104 -106 21 -4 113 -65 113 -76 0 -6 5 -8 10 -5 6 3 10 -1 10 -9 0 -9 3
-15 7 -14 8 1 40 -11 98 -37 38 -17 80 -29 81 -24 1 2 10 -3 20 -13 11 -9 37
-20 59 -23 22 -4 45 -11 51 -16 6 -5 37 -13 70 -18 32 -5 70 -12 84 -16 14 -4
31 -7 38 -7 6 -1 12 -5 12 -10 0 -5 5 -6 10 -3 6 3 10 2 10 -3 0 -8 28 -11 94
-13 11 0 54 -17 95 -37 42 -20 79 -35 84 -34 4 1 7 -4 7 -11 0 -7 12 -14 27
-15 15 -1 37 -9 49 -17 13 -8 34 -15 47 -15 13 0 27 -3 31 -7 4 -5 12 -9 17
-9 5 -1 13 -2 18 -3 5 0 23 -13 41 -27 22 -19 29 -32 24 -46 -5 -17 -3 -19 12
-10 10 5 29 6 45 2 15 -5 31 -5 35 -2 4 4 4 -3 1 -15 -6 -26 33 -90 51 -85 7
1 12 -2 12 -6 0 -5 29 -46 65 -91 51 -65 65 -90 65 -116 0 -19 5 -37 10 -40 8
-5 8 -11 1 -19 -6 -7 -8 -16 -4 -20 5 -4 8 -40 8 -79 0 -56 -4 -76 -18 -88
-19 -18 -14 -46 12 -65 13 -10 14 -16 2 -37 -7 -14 -10 -30 -7 -36 5 -7 -6
-11 -30 -11 -25 0 -43 -7 -56 -22 -14 -17 -32 -22 -76 -25 -65 -3 -91 -7 -112
-16 -8 -4 -34 -6 -58 -4 -23 2 -42 -1 -42 -5 0 -5 -15 -6 -33 -3 -57 10 -107
12 -107 3 0 -5 -10 -2 -21 6 -19 13 -24 13 -45 0 -22 -15 -69 -14 -93 1 -6 3
-11 2 -11 -3 0 -12 -110 -12 -133 0 -11 6 -17 5 -17 -3 0 -15 -81 -3 -92 14
-5 8 -8 8 -8 1 0 -14 -108 -16 -116 -3 -3 5 -11 6 -17 2 -14 -9 -117 -12 -117
-3 0 3 -9 6 -20 7 -11 1 -20 -3 -20 -9 0 -6 -9 -8 -23 -3 -29 9 -78 15 -157
19 -36 2 -87 11 -115 20 -27 8 -51 12 -52 8 -4 -8 -188 -8 -299 2 -43 3 -94 2
-111 -3 -20 -6 -35 -6 -38 0 -9 13 -76 11 -73 -3 2 -8 -37 -12 -137 -14 -153
-3 -165 -4 -165 -14 0 -3 -17 -6 -37 -5 -21 1 -41 -3 -44 -7 -3 -5 -37 -10
-75 -12 -38 -1 -80 -7 -94 -13 -14 -6 -45 -14 -70 -18 -24 -4 -55 -14 -67 -22
-13 -9 -23 -12 -23 -8 0 5 -9 0 -19 -9 -15 -13 -20 -14 -23 -4 -4 11 -8 10
-21 -1 -10 -7 -17 -10 -17 -6 0 4 -10 1 -23 -8 -12 -8 -40 -17 -62 -20 -22 -3
-65 -12 -95 -20 -34 -9 -64 -11 -78 -6 -17 6 -22 5 -22 -7 0 -8 -4 -13 -9 -9
-5 3 -13 1 -16 -5 -5 -8 -11 -7 -22 1 -9 8 -17 9 -21 3 -4 -5 -14 -10 -22 -9
-8 0 -22 -7 -31 -16 -8 -8 -35 -16 -60 -17 -25 -2 -58 -6 -75 -11 l-29 -7 -3
-1857 -2 -1857 4417 1 c2502 0 4409 4 4397 9 -12 5 -25 13 -29 19 -3 6 -15 11
-27 11 -16 0 -18 3 -9 14 14 16 4 119 -14 156 -7 14 -11 40 -9 58 2 19 -1 32
-7 32 -8 0 -7 5 1 15 8 10 9 19 3 27 -11 14 -11 14 -17 96 -2 34 0 52 8 52 8
0 8 2 0 8 -13 9 -14 14 -21 127 -2 49 -10 96 -16 103 -8 10 -7 16 3 22 10 6
11 14 2 37 -14 35 -18 94 -8 111 8 14 -1 35 -13 28 -4 -3 -8 9 -8 27 -7 247
-6 270 9 281 10 7 14 26 13 56 0 25 2 81 7 125 4 44 8 94 8 112 -1 17 4 34 9
38 6 3 7 15 2 28 -5 12 -5 34 -1 49 5 14 6 29 2 32 -3 3 -1 6 4 6 6 0 35 -37
65 -82 29 -46 57 -84 62 -86 4 -2 7 -9 7 -15 0 -23 43 -92 91 -149 27 -31 49
-61 49 -67 0 -11 5 -13 33 -15 11 -1 25 -19 44 -56 4 -8 19 -25 34 -38 16 -12
31 -32 34 -43 4 -10 10 -17 15 -14 5 3 14 -5 21 -17 7 -13 20 -29 31 -36 10
-7 18 -18 18 -23 0 -11 13 -28 53 -70 15 -15 27 -33 27 -38 0 -5 20 -26 45
-47 86 -70 126 -112 113 -117 -8 -4 -7 -6 4 -6 9 -1 23 -10 31 -21 8 -11 17
-17 20 -13 4 3 7 0 7 -8 0 -20 66 -83 78 -75 6 3 13 -3 17 -14 3 -11 13 -20
21 -20 8 0 13 -4 9 -10 -7 -11 35 -61 46 -55 4 3 10 -4 14 -15 3 -11 12 -20
20 -20 7 0 20 -11 29 -25 9 -14 21 -23 26 -20 5 3 11 -4 15 -15 3 -11 10 -20
15 -20 5 0 57 -47 115 -105 58 -58 110 -105 115 -105 6 0 10 -6 10 -13 0 -15
54 -64 80 -72 11 -4 20 -10 20 -15 0 -5 9 -12 20 -15 11 -3 20 -11 20 -17 0
-10 40 -47 53 -48 15 0 7 118 -9 134 -22 23 -101 76 -112 76 -12 0 -52 44 -52
58 0 7 -7 12 -15 12 -8 0 -15 7 -15 15 0 8 -11 22 -25 31 -14 9 -25 23 -25 30
0 8 -3 14 -7 14 -5 0 -69 60 -143 132 -74 72 -148 140 -165 150 -16 10 -26 18
-21 18 5 0 1 9 -9 20 -10 11 -21 17 -26 15 -4 -3 -13 10 -20 29 -9 26 -20 37
-42 42 -15 3 -26 8 -23 11 6 6 -82 97 -99 103 -15 5 -35 27 -35 38 0 5 -12 13
-26 16 -16 4 -30 19 -40 41 -7 18 -24 41 -36 49 -12 9 -19 16 -14 16 4 0 -9
19 -28 42 -20 23 -36 48 -36 55 0 8 -4 12 -9 9 -4 -3 -19 6 -31 19 -13 14 -21
25 -18 25 3 0 -38 44 -91 98 -53 53 -105 114 -116 135 -11 20 -23 37 -27 37
-7 0 -23 40 -21 51 1 3 -16 29 -38 57 -21 29 -39 55 -39 58 0 6 -15 24 -48 60
-21 22 -22 29 -13 56 6 17 11 42 11 55 0 13 6 26 14 29 8 3 12 12 9 20 -3 8
-1 20 5 27 5 6 8 20 7 29 -2 10 8 26 21 37 30 24 33 71 4 78 -11 3 -17 9 -14
14 8 14 -30 11 -45 -4 -8 -6 -5 3 5 22 10 18 25 35 31 38 7 3 11 9 8 13 -3 4
5 10 18 14 12 3 49 31 82 62 33 32 63 57 66 56 3 0 6 6 7 14 1 7 3 21 4 29 1
8 6 15 11 15 6 0 8 3 5 6 -4 3 0 21 8 39 8 19 14 49 14 67 0 18 7 58 16 88 9
30 15 67 15 82 -1 15 3 29 8 33 5 3 8 16 5 30 -2 13 0 26 5 30 6 3 8 14 5 25
-2 11 -6 29 -8 40 -3 11 -1 20 4 20 9 0 7 15 -5 42 -4 10 -8 29 -9 43 0 14 -4
25 -8 25 -4 0 -10 21 -14 48 -3 26 -12 54 -20 62 -14 17 -15 60 -1 60 4 0 5 5
2 11 -4 6 -14 8 -23 4 -8 -3 -19 0 -23 6 -4 6 -32 12 -63 12 -31 1 -56 5 -56
10 0 4 -5 5 -12 1 -8 -5 -9 0 -5 15 3 15 -1 26 -16 36 -12 8 -18 15 -13 15 5
0 3 7 -4 15 -7 8 -9 15 -4 15 4 0 3 5 -4 12 -7 7 -12 20 -12 30 0 10 -4 18
-10 18 -5 0 -15 20 -21 44 -6 25 -19 52 -30 61 -17 16 -17 19 -1 43 16 25 16
26 0 19 -19 -7 -31 6 -35 38 -2 11 -14 35 -27 53 -16 22 -22 43 -20 64 3 20
-2 38 -13 50 -9 10 -13 21 -10 25 4 3 2 12 -4 20 -6 7 -8 13 -5 13 4 0 0 7 -8
16 -9 8 -16 29 -16 45 0 16 -7 46 -17 67 -9 20 -15 42 -14 49 1 6 -3 14 -8 18
-6 3 -8 11 -5 18 2 7 -16 32 -41 57 -25 24 -45 48 -45 53 0 5 -9 18 -21 28
-19 16 -19 18 -2 28 17 10 16 11 -4 17 -13 3 -23 12 -23 19 0 6 -12 17 -26 23
-14 7 -22 17 -19 22 4 6 1 17 -5 25 -7 8 -9 15 -5 15 5 0 1 8 -8 18 -10 10
-15 21 -12 24 3 3 -4 13 -15 23 -11 10 -20 28 -20 40 0 12 -10 33 -22 47 -13
14 -24 32 -26 39 -2 8 -11 23 -21 34 -27 30 -34 54 -36 122 -1 51 -6 66 -24
82 -12 11 -22 22 -22 25 3 23 -1 36 -13 48 -24 24 -56 106 -43 111 7 2 1 10
-13 17 -35 18 -62 51 -55 68 3 7 -2 23 -10 35 -8 12 -15 18 -15 13 0 -5 -6 -3
-14 3 -8 7 -20 11 -28 10 -27 -6 -57 12 -53 31 2 12 -4 20 -18 24 -13 3 -32
25 -47 53 -14 26 -32 53 -40 60 -13 10 -13 12 2 18 18 7 14 35 -6 35 -6 0 -36
27 -66 61 -30 34 -60 66 -66 73 -5 6 -13 19 -17 29 -3 9 -18 22 -32 27 -14 5
-25 14 -25 20 0 18 -34 51 -67 65 -18 8 -33 21 -33 30 0 9 -3 14 -7 12 -11 -6
-66 26 -71 41 -2 7 5 12 15 13 16 0 16 1 -2 8 -11 5 -21 4 -23 0 -6 -15 -20
-10 -57 22 -19 17 -35 28 -35 25 0 -3 -8 2 -18 12 -27 24 -53 44 -87 66 -17
10 -47 36 -67 56 -20 21 -72 55 -115 76 -43 22 -79 42 -81 46 -2 4 -10 4 -18
1 -8 -3 -14 0 -14 7 0 6 -3 9 -8 6 -4 -2 -14 1 -23 8 -14 10 -16 34 -14 176 2
91 5 181 7 200 3 19 1 43 -4 53 -5 10 -4 25 2 37 8 14 8 20 0 20 -6 0 -10 15
-9 33 1 17 -2 40 -6 50 -4 9 -3 17 1 17 5 0 10 39 11 88 1 48 3 98 4 112 1 14
-1 35 -5 48 -4 12 -4 22 1 22 10 0 9 163 -1 179 -4 7 -2 18 4 26 7 9 8 15 2
15 -5 0 -9 11 -9 25 0 14 4 25 9 25 5 0 6 5 3 10 -3 6 -2 10 4 10 5 0 8 8 6
18 -2 9 -4 17 -6 17 -7 0 -5 53 3 68 6 12 6 23 -1 30 -10 13 -10 35 2 53 3 6
3 14 -1 18 -10 11 -10 196 0 202 5 3 5 11 1 17 -10 16 -13 37 -5 37 4 0 8 16
8 35 1 19 -3 35 -8 35 -5 0 -4 9 2 20 6 11 7 20 2 20 -6 0 -10 15 -11 33 -2
47 -7 82 -13 93 -8 12 -8 206 0 219 4 6 7 16 8 23 2 8 9 21 17 30 8 10 13 27
11 40 -2 12 1 22 6 22 6 0 10 8 10 18 0 10 11 29 25 42 13 12 23 26 22 31 -1
4 7 15 18 23 17 14 18 17 5 26 -10 7 -12 12 -4 18 6 4 14 17 18 30 4 12 12 20
17 17 5 -4 9 1 9 9 0 9 5 16 10 16 6 0 10 10 10 23 0 13 3 27 7 31 4 3 8 16
10 28 2 12 8 25 14 29 6 3 11 13 12 21 2 8 13 27 25 42 12 16 22 34 22 41 0 7
7 16 16 19 8 3 12 11 9 17 -4 6 2 20 12 32 11 12 20 33 21 47 1 14 6 26 12 28
5 2 10 8 10 13 0 6 9 22 20 38 12 15 22 37 23 49 1 12 5 22 9 22 4 0 8 5 8 11
0 6 9 23 19 38 11 15 19 36 18 46 -1 14 5 21 21 23 12 2 22 8 22 13 0 6 -5 7
-11 4 -12 -8 -9 27 4 36 4 3 9 14 12 25 23 103 39 153 56 180 12 21 16 35 9
39 -16 10 -12 22 12 28 16 5 19 9 11 19 -6 7 -9 22 -6 33 10 47 11 70 4 80 -4
5 -7 33 -6 60 1 28 -2 55 -6 60 -7 10 -5 49 5 92 3 14 -1 24 -11 28 -11 4 -13
9 -6 16 17 17 -34 164 -68 195 -9 8 -16 25 -14 36 3 11 -4 32 -15 46 -11 13
-20 30 -20 37 0 6 -16 32 -36 58 -20 25 -33 50 -30 55 3 5 -6 15 -19 22 -13 7
-25 18 -27 24 -2 6 -18 10 -35 8z m-6993 -1897 c-7 -8 -16 -12 -21 -9 -13 8
-1 24 18 24 13 0 13 -3 3 -15z m1170 -26 c0 -6 -4 -7 -10 -4 -5 3 -10 11 -10
16 0 6 5 7 10 4 6 -3 10 -11 10 -16z m162 -56 c28 -25 21 -34 -11 -15 -16 9
-27 20 -25 24 8 12 15 10 36 -9z m233 -103 c3 -5 2 -10 -4 -10 -5 0 -13 5 -16
10 -3 6 -2 10 4 10 5 0 13 -4 16 -10z m166 -66 c30 -9 66 -25 81 -36 16 -10
32 -17 37 -14 5 3 26 -10 47 -29 22 -19 34 -35 27 -35 -6 0 -15 5 -18 10 -3 6
-17 10 -31 10 -13 0 -24 5 -24 10 0 6 -8 10 -19 10 -10 0 -29 8 -42 18 -13 11
-46 27 -72 37 -26 10 -50 22 -53 26 -7 13 5 11 67 -7z"/>
<path d="M390 9190 c0 -5 5 -10 10 -10 6 0 10 5 10 10 0 6 -4 10 -10 10 -5 0
-10 -4 -10 -10z"/>
<path d="M2435 7810 c3 -5 8 -10 11 -10 2 0 4 5 4 10 0 6 -5 10 -11 10 -5 0
-7 -4 -4 -10z"/>
<path d="M995 6660 c3 -5 11 -10 16 -10 6 0 7 5 4 10 -3 6 -11 10 -16 10 -6 0
-7 -4 -4 -10z"/>
<path d="M1230 6216 c0 -2 7 -9 15 -16 13 -11 14 -10 9 4 -5 14 -24 23 -24 12z"/>
<path d="M1450 5810 c0 -5 5 -10 10 -10 6 0 10 5 10 10 0 6 -4 10 -10 10 -5 0
-10 -4 -10 -10z"/>
<path d="M2936 4822 c-3 -4 4 -13 14 -20 11 -6 21 -8 24 -4 3 4 -4 13 -14 20
-11 6 -21 8 -24 4z"/>
</g>
</svg>
